<svg width="30" height="30" viewBox="0 0 30 30" fill="none" xmlns="http://www.w3.org/2000/svg">
<path d="M15 29.9999C23.2842 29.9999 29.9999 23.2842 29.9999 14.9999C29.9999 6.7157 23.2842 0 15 0C6.71571 0 0 6.7157 0 14.9999C0 23.2842 6.71571 29.9999 15 29.9999Z" fill="#FEBD29"/>
<path d="M21.2719 6.41406H8.72792C7.45005 6.41406 6.41406 7.45 6.41406 8.72792V21.2719C6.41406 22.5499 7.45 23.5858 8.72792 23.5858H14.9145L14.9252 17.4497H13.3309C13.1237 17.4497 12.9555 17.2822 12.9548 17.075L12.947 15.0969C12.9462 14.8887 13.115 14.7193 13.3232 14.7193H14.9147V12.8081C14.9147 10.5903 16.2693 9.38259 18.2477 9.38259H19.8714C20.0789 9.38259 20.2475 9.55098 20.2475 9.75876V11.4265C20.2475 11.6343 20.0791 11.8027 19.8716 11.8027L18.8751 11.8033C17.7992 11.8033 17.5907 12.3145 17.5907 13.065V14.7196H19.955C20.1805 14.7196 20.3552 14.9163 20.3286 15.1399L20.0941 17.1179C20.0718 17.3073 19.9112 17.4499 19.7206 17.4499H17.6014L17.5907 23.5861H21.2719C22.5497 23.5861 23.5857 22.5501 23.5857 21.2722V8.72792C23.5858 7.45005 22.5498 6.41406 21.2719 6.41406Z" fill="white"/>
<path d="M14.914 23.5852L14.9247 17.4492H14.8984V23.5852H14.914Z" fill="white"/>
</svg>
