<svg width="30" height="30" viewBox="0 0 30 30" fill="none" xmlns="http://www.w3.org/2000/svg">
<path d="M15 30C23.2843 30 30 23.2843 30 15C30 6.71573 23.2843 0 15 0C6.71573 0 0 6.71573 0 15C0 23.2843 6.71573 30 15 30Z" fill="#727272"/>
<path d="M18.4703 6.41406H11.5295C8.70883 6.41406 6.41406 8.70883 6.41406 11.5295V18.4703C6.41406 21.2908 8.70883 23.5858 11.5296 23.5858H18.4703C21.2909 23.5858 23.5858 21.291 23.5858 18.4703V11.5295C23.5858 8.70883 21.291 6.41406 18.4703 6.41406ZM21.8583 18.4703C21.8583 20.3414 20.3414 21.8583 18.4703 21.8583H11.5296C9.65846 21.8583 8.14158 20.3414 8.14158 18.4703V11.5296C8.14158 9.65846 9.65846 8.14152 11.5296 8.14152H18.4703C20.3414 8.14152 21.8583 9.65852 21.8583 11.5296V18.4703Z" fill="white"/>
<path d="M15.0001 10.5581C12.5512 10.5581 10.5588 12.5505 10.5588 14.9994C10.5588 17.4481 12.5512 19.4405 15.0001 19.4405C17.4489 19.4405 19.4412 17.4483 19.4412 14.9994C19.4412 12.5505 17.4489 10.5581 15.0001 10.5581ZM15.0001 17.713C13.5013 17.713 12.2862 16.4982 12.2862 14.9994C12.2862 13.5006 13.5013 12.2856 15.0001 12.2856C16.4988 12.2856 17.7137 13.5005 17.7137 14.9994C17.7137 16.4982 16.4988 17.713 15.0001 17.713Z" fill="white"/>
</svg>
