<svg width="138" height="34" viewBox="0 0 138 34" fill="none" xmlns="http://www.w3.org/2000/svg">
<path d="M86.6381 19.0473L89.8955 5.12042L94.1322 20.8729L90.6299 34.0001H80.8093L71.0867 0.820312H81.8624L86.6381 19.0473ZM109.61 34.0001H99.2778L90.3607 0.820312H101.284L109.61 34.0001ZM109.708 0.82103H119.574L110.758 32.2752L106.353 14.5971L109.708 0.82103Z" fill="url(#paint0_linear)"/>
<path d="M86.6381 19.0473L89.8955 5.12042L94.1322 20.8729L90.6299 34.0001H80.8093L71.0867 0.820312H81.8624L86.6381 19.0473ZM109.61 34.0001H99.2778L90.3607 0.820312H101.284L109.61 34.0001ZM109.708 0.82103H119.574L110.758 32.2752L106.353 14.5971L109.708 0.82103Z" fill="black"/>
<path d="M43.4811 15.773L46.7385 29.6999L50.9752 13.9474L47.4728 0.820312H37.6523L27.9297 34H38.7054L43.4811 15.773ZM66.4528 0.820312H56.1207L47.2037 34H58.1263L66.4528 0.820312ZM66.5508 33.9993H76.4176L67.6013 2.54507L63.1953 20.2232L66.5508 33.9993Z" fill="black"/>
<path d="M117.707 13.0898H126.093L128.165 0.828125H138L132.306 33.8584H112.117L114.86 25.4028H123.971L124.696 20.9629H116.31L117.707 13.0898Z" fill="black"/>
<path d="M18.1785 23.5631C18.1785 22.7167 17.7429 22.0376 16.8718 21.5257C16.0006 21.0139 14.3454 20.4825 11.906 19.9313C9.46676 19.3801 7.45338 18.6615 5.86591 17.7757C4.27843 16.8702 3.06847 15.7776 2.23602 14.4982C1.40355 13.2186 0.987327 11.752 0.987327 10.0985C0.987327 7.16544 2.17793 4.75398 4.55914 2.86421C6.94035 0.954771 10.0572 0 13.9098 0C18.0526 0 21.3825 0.954771 23.8992 2.86421C26.4159 4.77365 27.6742 7.28355 27.6742 10.3938H17.8591C17.8591 7.83473 16.533 6.55515 13.8807 6.55515C12.8547 6.55515 11.9932 6.85046 11.2963 7.44098C10.5993 8.01184 10.2508 8.7304 10.2508 9.59657C10.2508 10.4824 10.6767 11.2009 11.5286 11.752C12.3804 12.3032 13.7355 12.756 15.594 13.1103C17.4719 13.4646 19.1174 13.8879 20.5307 14.3801C25.2543 16.0336 27.6162 18.9962 27.6162 23.2679C27.6162 26.1813 26.3385 28.5533 23.7831 30.3841C21.247 32.2147 17.9559 33.1301 13.9098 33.1301C11.2188 33.1301 8.81822 32.638 6.70804 31.6537C4.59787 30.6694 2.95231 29.3309 1.77139 27.638C0.590462 25.9451 0 24.1636 0 22.2935H9.14733C9.18601 23.7698 9.67005 24.8525 10.5993 25.5415C11.5286 26.2108 12.7192 26.5454 14.1711 26.5454C15.5069 26.5454 16.5039 26.2699 17.1621 25.7187C17.8397 25.1675 18.1785 24.4489 18.1785 23.5631Z" fill="black"/>
<defs>
<linearGradient id="paint0_linear" x1="75.8234" y1="17.4101" x2="113.718" y2="17.4101" gradientUnits="userSpaceOnUse">
<stop offset="0.166667"/>
<stop offset="0.75" stop-color="white"/>
</linearGradient>
</defs>
</svg>
