<svg width="22" height="22" viewBox="0 0 22 22" fill="none" xmlns="http://www.w3.org/2000/svg">
<path d="M21.0201 20.1473L21.0197 20.1469L15.0674 14.1946C16.2878 12.7748 17.0333 10.9339 17.0333 8.91667C17.0333 4.44122 13.3921 0.8 8.91662 0.8C4.44117 0.8 0.8 4.44122 0.8 8.91667C0.8 13.3921 4.44122 17.0333 8.91666 17.0333C10.9338 17.0333 12.7748 16.2878 14.1946 15.0666L20.1469 21.0189C20.2674 21.1394 20.4255 21.2 20.5833 21.2C20.741 21.2 20.8987 21.1395 21.019 21.0205L21.0201 21.0194C21.2602 20.778 21.2602 20.3886 21.0201 20.1473ZM8.91666 15.8C5.12131 15.8 2.03336 12.7121 2.03336 8.9167C2.03336 5.12135 5.12127 2.03336 8.91666 2.03336C12.7121 2.03336 15.8 5.12131 15.8 8.91667C15.8 12.712 12.712 15.8 8.91666 15.8Z" fill="#4B4B4B" stroke="#4B4B4B" stroke-width="0.4"/>
</svg>
